<?xml version="1.0" standalone="yes"?>
<svg xmlns="http://www.w3.org/2000/svg" width="67" height="67">
<path style="fill:#0d0516; stroke:none;" d="M0 0L0 24L1 24C2.15517 12.7826 12.7826 2.15516 24 1L0 0z"/>
<path style="fill:#4e2e8f; stroke:none;" d="M21 63C14.8246 54.6096 6.22465 49.8732 3.51543 39C-1.72579 17.9648 19.0798 -2.36813 40 3.78472C50.3015 6.81449 54.8962 15.0355 63 21C58.6489 0.948608 30.1325 -5.57721 14 4.21373C-3.01463 14.5401 -3.01919 36.2173 6.07407 51.2847C9.78375 57.4316 13.6914 61.4141 21 63z"/>
<path style="fill:#0d0516; stroke:none;" d="M41 0L41 1C45.6536 2.38261 49.9253 5.34918 54 7.96914C89.5632 30.8357 38.6291 89.2737 9.31327 55.8295C5.93011 51.9699 2.45269 45.8894 1 41L0 41L0 67L67 67L67 0L41 0z"/>
<path style="fill:#0101ff; stroke:none;" d="M19 1L20 2L19 1M17 2L18 3L17 2z"/>
<path style="fill:#a65bc0; stroke:none;" d="M31 2L31 3L34 3L31 2M24.6667 3.33333L25.3333 3.66667L24.6667 3.33333z"/>
<path style="fill:#f6eef9; stroke:none;" d="M26 3.51775C-11.5291 11.5366 1.75577 69.289 39 61.331C76.5815 53.301 63.1589 -4.42199 26 3.51775z"/>
<path style="fill:#a65bc0; stroke:none;" d="M38.6667 3.33333L39.3333 3.66667L38.6667 3.33333M21.6667 4.33333L22.3333 4.66667L21.6667 4.33333M31 4L31 7L33 7L33 4L31 4M42 4L43 5L42 4M19 5L20 6L19 5M26 5L26 7L29 7L29 5L26 5M37 5L40 7L37 5M44 5L45 6L44 5M17 6L18 7L17 6M22 9L25 7C22.6038 6.4254 22.513 6.52489 22 9M42 6L41 7L44 9L42 6M46 6L47 7L46 6z"/>
<path style="fill:#0101ff; stroke:none;" d="M9 7L10 8L9 7z"/>
<path style="fill:#a65bc0; stroke:none;" d="M15.6667 7.33333L16.3333 7.66667L15.6667 7.33333z"/>
<path style="fill:#f6eef9; stroke:none;" d="M42 7L43 8L42 7z"/>
<path style="fill:#a65bc0; stroke:none;" d="M48 7L49 8L48 7M14 8L15 9L14 8M18 10L21 8L18 10M50 8L51 9L50 8z"/>
<path style="fill:#0101ff; stroke:none;" d="M7 9L8 10L7 9z"/>
<path style="fill:#a65bc0; stroke:none;" d="M13 9L14 10L13 9M51 9L52 10L51 9M12 10L13 11L12 10M47.3333 10.6667L47.6667 11.3333L47.3333 10.6667M52 10L53 11L52 10M14 11L15 12L14 11M53 11L54 12L53 11M10 12L11 13L10 12M54 12L55 13L54 12M9 13L10 14L9 13M50 13L52 15L52 13L50 13M55 13L56 14L55 13M8 14L9 15L8 14M56 14L57 15L56 14M7.33333 15.6667L7.66667 16.3333L7.33333 15.6667M10 15L13 17L10 15M54 15L53 17L55 17L54 15M57.3333 15.6667L57.6667 16.3333L57.3333 15.6667z"/>
<path style="fill:#0101ff; stroke:none;" d="M2 17L3 18L2 17z"/>
<path style="fill:#a65bc0; stroke:none;" d="M6 17L7 18L6 17M21 17C21.7869 26.0242 26.4908 40.2737 33 26C35.6295 33.9689 40.5725 35.4485 42 26L41 26L39 28L39 21L38 21L37 24L35 17L30 17L29 24L21 17M39.3333 17.6667L39.6667 18.3333L39.3333 17.6667z"/>
<path style="fill:#4e2e8f; stroke:none;" d="M39 28L41 28L44 17C38.5131 17.9528 38.1899 23.1938 39 28z"/>
<path style="fill:#a65bc0; stroke:none;" d="M58 17L59 18L58 17M8 18L10 20L8 18z"/>
<path style="fill:#4e2e8f; stroke:none;" d="M32 18L34 23L35 23L32 18z"/>
<path style="fill:#a65bc0; stroke:none;" d="M59 18C63.4089 37.232 59.1159 59.3508 35 61.8256C29.082 62.4329 23.6628 60.2982 18 59C37.7759 83.3217 83.3217 37.7759 59 18z"/>
<path style="fill:#0101ff; stroke:none;" d="M1 19L2 20L1 19z"/>
<path style="fill:#a65bc0; stroke:none;" d="M5 19L6 20L5 19M55 19L56 20L55 19M43.3333 20.6667L43.6667 21.3333L43.3333 20.6667M4.33333 21.6667L4.66667 22.3333L4.33333 21.6667M7.66667 21.3333L8.33333 21.6667L7.66667 21.3333M57.6667 21.3333L58.3333 21.6667L57.6667 21.3333z"/>
<path style="fill:#4e2e8f; stroke:none;" d="M63.3333 22.6667L63.6667 23.3333L63.3333 22.6667z"/>
<path style="fill:#a65bc0; stroke:none;" d="M6 23L5 27L6 23M42.3333 23.6667L42.6667 24.3333L42.3333 23.6667M3.33333 24.6667L3.66667 25.3333L3.33333 24.6667M57 25L58 27L59 27L60 25L57 25z"/>
<path style="fill:#4e2e8f; stroke:none;" d="M64 26L64 29L65 29L64 26z"/>
<path style="fill:#a65bc0; stroke:none;" d="M58 29L59 30L58 29M2 31L2 34L3 34L2 31M21 35L19 41C15.3216 41.6131 17.4569 47.4662 19.4954 49.5046C22.4698 52.4791 26.3624 52.1821 30 51L33 47L31 50L45 51L45 50L42 51L43 49C32.9802 50.6314 34.2302 41.994 38 36L33 38L28 51C16.5974 46.3463 23.6589 43.1147 21 35z"/>
<path style="fill:#4e2e8f; stroke:none;" d="M22 35L21 37L23 37L22 35z"/>
<path style="fill:#a65bc0; stroke:none;" d="M23.3333 35.6667L23.6667 36.3333L23.3333 35.6667M34 36L35 37L34 36z"/>
<path style="fill:#4e2e8f; stroke:none;" d="M34 39L37 36L34 39M64 36L64 39L65 39L64 36M20 37L19 39L20 37z"/>
<path style="fill:#a65bc0; stroke:none;" d="M3.33333 38.6667L3.66667 39.3333L3.33333 38.6667z"/>
<path style="fill:#4e2e8f; stroke:none;" d="M18.3333 39.6667L18.6667 40.3333L18.3333 39.6667M33 39L34 40L33 39z"/>
<path style="fill:#a65bc0; stroke:none;" d="M24 41L23 44L27 45L24 41z"/>
<path style="fill:#4e2e8f; stroke:none;" d="M24 43L27 43L26 41L24 43z"/>
<path style="fill:#a65bc0; stroke:none;" d="M26 41L27 42L26 41M38 41C38.6115 44.2175 41.0995 46.1808 42 42L38 41z"/>
<path style="fill:#4e2e8f; stroke:none;" d="M39 41L39 43L41 43L41 41L39 41M63.3333 41.6667L63.6667 42.3333L63.3333 41.6667z"/>
<path style="fill:#a65bc0; stroke:none;" d="M4 42L5 43L4 42M5 44L6 45L5 44z"/>
<path style="fill:#4e2e8f; stroke:none;" d="M62.3333 44.6667L62.6667 45.3333L62.3333 44.6667z"/>
<path style="fill:#a65bc0; stroke:none;" d="M6 46L7 47L6 46M45 46L46 47L45 46z"/>
<path style="fill:#4e2e8f; stroke:none;" d="M46 46L42 50L42 51C44.7548 49.9946 46.6813 49.1133 46 46M29 50L33 47L29 50z"/>
<path style="fill:#a65bc0; stroke:none;" d="M47 47L48 48L47 47z"/>
<path style="fill:#4e2e8f; stroke:none;" d="M61 47L62 48L61 47z"/>
<path style="fill:#a65bc0; stroke:none;" d="M7 48L8 49L7 48M44 48L45 49L44 48z"/>
<path style="fill:#4e2e8f; stroke:none;" d="M60 49L61 50L60 49z"/>
<path style="fill:#a65bc0; stroke:none;" d="M8 50L9 51L8 50z"/>
<path style="fill:#4e2e8f; stroke:none;" d="M27 50L28 51L27 50M59 50L60 51L59 50z"/>
<path style="fill:#a65bc0; stroke:none;" d="M9 51L10 52L9 51M10 52L11 53L10 52z"/>
<path style="fill:#4e2e8f; stroke:none;" d="M58 52L59 53L58 52z"/>
<path style="fill:#a65bc0; stroke:none;" d="M11 53L12 54L11 53z"/>
<path style="fill:#4e2e8f; stroke:none;" d="M57 53L58 54L57 53z"/>
<path style="fill:#a65bc0; stroke:none;" d="M12 54L13 55L12 54z"/>
<path style="fill:#4e2e8f; stroke:none;" d="M56 54L57 55L56 54z"/>
<path style="fill:#a65bc0; stroke:none;" d="M13 55L14 56L13 55z"/>
<path style="fill:#4e2e8f; stroke:none;" d="M55 55L56 56L55 55z"/>
<path style="fill:#a65bc0; stroke:none;" d="M14 56L15 57L14 56z"/>
<path style="fill:#4e2e8f; stroke:none;" d="M54 56L55 57L54 56z"/>
<path style="fill:#a65bc0; stroke:none;" d="M15.6667 57.3333L16.3333 57.6667L15.6667 57.3333z"/>
<path style="fill:#4e2e8f; stroke:none;" d="M53 57L54 58L53 57z"/>
<path style="fill:#a65bc0; stroke:none;" d="M17 58L18 59L17 58z"/>
<path style="fill:#4e2e8f; stroke:none;" d="M52 58L53 59L52 58M50 59L51 60L50 59M49 60L50 61L49 60M47 61L48 62L47 61M44.6667 62.3333L45.3333 62.6667L44.6667 62.3333M22.6667 63.3333L23.3333 63.6667L22.6667 63.3333M41.6667 63.3333L42.3333 63.6667L41.6667 63.3333M26 64L26 65L29 65L26 64M36 64L36 65L39 65L36 64z"/>
</svg>
